<mxfile host="app.diagrams.net" modified="2023-11-19T19:47:07.313Z" agent="Mozilla/5.0 (Windows NT 10.0; Win64; x64) AppleWebKit/537.36 (KHTML, like Gecko) Chrome/119.0.0.0 Safari/537.36" etag="7gS6YEjsyYyC8tA23t-7" version="22.1.3" type="device">
  <diagram id="R2lEEEUBdFMjLlhIrx00" name="Page-1">
    <mxGraphModel dx="794" dy="504" grid="1" gridSize="10" guides="1" tooltips="1" connect="1" arrows="1" fold="1" page="1" pageScale="1" pageWidth="850" pageHeight="1100" math="0" shadow="0" extFonts="Permanent Marker^https://fonts.googleapis.com/css?family=Permanent+Marker">
      <root>
        <mxCell id="0" />
        <mxCell id="1" parent="0" />
        <mxCell id="C-vyLk0tnHw3VtMMgP7b-2" value="Producto" style="shape=table;startSize=30;container=1;collapsible=1;childLayout=tableLayout;fixedRows=1;rowLines=0;fontStyle=1;align=center;resizeLast=1;labelBackgroundColor=none;fillColor=#FAE5C7;strokeColor=#0F8B8D;fontColor=#143642;" parent="1" vertex="1">
          <mxGeometry x="325" y="30" width="160" height="140" as="geometry" />
        </mxCell>
        <mxCell id="C-vyLk0tnHw3VtMMgP7b-3" value="" style="shape=partialRectangle;collapsible=0;dropTarget=0;pointerEvents=0;fillColor=none;points=[[0,0.5],[1,0.5]];portConstraint=eastwest;top=0;left=0;right=0;bottom=1;labelBackgroundColor=none;strokeColor=#0F8B8D;fontColor=#143642;" parent="C-vyLk0tnHw3VtMMgP7b-2" vertex="1">
          <mxGeometry y="30" width="160" height="20" as="geometry" />
        </mxCell>
        <mxCell id="C-vyLk0tnHw3VtMMgP7b-4" value="PK" style="shape=partialRectangle;overflow=hidden;connectable=0;fillColor=none;top=0;left=0;bottom=0;right=0;fontStyle=1;labelBackgroundColor=none;strokeColor=#0F8B8D;fontColor=#143642;" parent="C-vyLk0tnHw3VtMMgP7b-3" vertex="1">
          <mxGeometry width="20" height="20" as="geometry">
            <mxRectangle width="20" height="20" as="alternateBounds" />
          </mxGeometry>
        </mxCell>
        <mxCell id="C-vyLk0tnHw3VtMMgP7b-5" value="ID_Producto" style="shape=partialRectangle;overflow=hidden;connectable=0;fillColor=none;top=0;left=0;bottom=0;right=0;align=center;spacingLeft=6;fontStyle=1;labelBackgroundColor=none;strokeColor=#0F8B8D;fontColor=#143642;" parent="C-vyLk0tnHw3VtMMgP7b-3" vertex="1">
          <mxGeometry x="20" width="140" height="20" as="geometry">
            <mxRectangle width="140" height="20" as="alternateBounds" />
          </mxGeometry>
        </mxCell>
        <mxCell id="C-vyLk0tnHw3VtMMgP7b-6" value="" style="shape=partialRectangle;collapsible=0;dropTarget=0;pointerEvents=0;fillColor=none;points=[[0,0.5],[1,0.5]];portConstraint=eastwest;top=0;left=0;right=0;bottom=0;labelBackgroundColor=none;strokeColor=#0F8B8D;fontColor=#143642;" parent="C-vyLk0tnHw3VtMMgP7b-2" vertex="1">
          <mxGeometry y="50" width="160" height="60" as="geometry" />
        </mxCell>
        <mxCell id="C-vyLk0tnHw3VtMMgP7b-7" value="" style="shape=partialRectangle;overflow=hidden;connectable=0;fillColor=none;top=0;left=0;bottom=0;right=0;labelBackgroundColor=none;strokeColor=#0F8B8D;fontColor=#143642;" parent="C-vyLk0tnHw3VtMMgP7b-6" vertex="1">
          <mxGeometry width="20" height="60" as="geometry">
            <mxRectangle width="20" height="60" as="alternateBounds" />
          </mxGeometry>
        </mxCell>
        <mxCell id="C-vyLk0tnHw3VtMMgP7b-8" value="Nombre:&#xa;Precio:&#xa;Descripcion:" style="shape=partialRectangle;overflow=hidden;connectable=0;fillColor=none;top=0;left=0;bottom=0;right=0;align=left;spacingLeft=6;labelBackgroundColor=none;strokeColor=#0F8B8D;fontColor=#143642;" parent="C-vyLk0tnHw3VtMMgP7b-6" vertex="1">
          <mxGeometry x="20" width="140" height="60" as="geometry">
            <mxRectangle width="140" height="60" as="alternateBounds" />
          </mxGeometry>
        </mxCell>
        <mxCell id="C-vyLk0tnHw3VtMMgP7b-9" value="" style="shape=partialRectangle;collapsible=0;dropTarget=0;pointerEvents=0;fillColor=none;points=[[0,0.5],[1,0.5]];portConstraint=eastwest;top=0;left=0;right=0;bottom=0;labelBackgroundColor=none;strokeColor=#0F8B8D;fontColor=#143642;" parent="C-vyLk0tnHw3VtMMgP7b-2" vertex="1">
          <mxGeometry y="110" width="160" height="30" as="geometry" />
        </mxCell>
        <mxCell id="C-vyLk0tnHw3VtMMgP7b-10" value="CF" style="shape=partialRectangle;overflow=hidden;connectable=0;fillColor=none;top=0;left=0;bottom=0;right=0;fontStyle=1;labelBackgroundColor=none;strokeColor=#0F8B8D;fontColor=#143642;" parent="C-vyLk0tnHw3VtMMgP7b-9" vertex="1">
          <mxGeometry width="20" height="30" as="geometry">
            <mxRectangle width="20" height="30" as="alternateBounds" />
          </mxGeometry>
        </mxCell>
        <mxCell id="C-vyLk0tnHw3VtMMgP7b-11" value="Categoria_ID&#xa;Proveedor_ID" style="shape=partialRectangle;overflow=hidden;connectable=0;fillColor=none;top=0;left=0;bottom=0;right=0;align=left;spacingLeft=6;labelBackgroundColor=none;strokeColor=#0F8B8D;fontColor=#143642;" parent="C-vyLk0tnHw3VtMMgP7b-9" vertex="1">
          <mxGeometry x="20" width="140" height="30" as="geometry">
            <mxRectangle width="140" height="30" as="alternateBounds" />
          </mxGeometry>
        </mxCell>
        <mxCell id="C-vyLk0tnHw3VtMMgP7b-23" value="Customers" style="shape=table;startSize=30;container=1;collapsible=1;childLayout=tableLayout;fixedRows=1;rowLines=0;fontStyle=1;align=center;resizeLast=1;labelBackgroundColor=none;fillColor=#FAE5C7;strokeColor=#0F8B8D;fontColor=#143642;" parent="1" vertex="1">
          <mxGeometry x="80" y="30" width="200" height="130" as="geometry" />
        </mxCell>
        <mxCell id="C-vyLk0tnHw3VtMMgP7b-24" value="" style="shape=partialRectangle;collapsible=0;dropTarget=0;pointerEvents=0;fillColor=none;points=[[0,0.5],[1,0.5]];portConstraint=eastwest;top=0;left=0;right=0;bottom=1;labelBackgroundColor=none;strokeColor=#0F8B8D;fontColor=#143642;" parent="C-vyLk0tnHw3VtMMgP7b-23" vertex="1">
          <mxGeometry y="30" width="200" height="30" as="geometry" />
        </mxCell>
        <mxCell id="C-vyLk0tnHw3VtMMgP7b-25" value="CP" style="shape=partialRectangle;overflow=hidden;connectable=0;fillColor=none;top=0;left=0;bottom=0;right=0;fontStyle=1;labelBackgroundColor=none;strokeColor=#0F8B8D;fontColor=#143642;" parent="C-vyLk0tnHw3VtMMgP7b-24" vertex="1">
          <mxGeometry width="20" height="30" as="geometry">
            <mxRectangle width="20" height="30" as="alternateBounds" />
          </mxGeometry>
        </mxCell>
        <mxCell id="C-vyLk0tnHw3VtMMgP7b-26" value="ID_Cliente" style="shape=partialRectangle;overflow=hidden;connectable=0;fillColor=none;top=0;left=0;bottom=0;right=0;align=center;spacingLeft=6;fontStyle=1;labelBackgroundColor=none;strokeColor=#0F8B8D;fontColor=#143642;" parent="C-vyLk0tnHw3VtMMgP7b-24" vertex="1">
          <mxGeometry x="20" width="180" height="30" as="geometry">
            <mxRectangle width="180" height="30" as="alternateBounds" />
          </mxGeometry>
        </mxCell>
        <mxCell id="C-vyLk0tnHw3VtMMgP7b-27" value="" style="shape=partialRectangle;collapsible=0;dropTarget=0;pointerEvents=0;fillColor=none;points=[[0,0.5],[1,0.5]];portConstraint=eastwest;top=0;left=0;right=0;bottom=0;labelBackgroundColor=none;strokeColor=#0F8B8D;fontColor=#143642;" parent="C-vyLk0tnHw3VtMMgP7b-23" vertex="1">
          <mxGeometry y="60" width="200" height="70" as="geometry" />
        </mxCell>
        <mxCell id="C-vyLk0tnHw3VtMMgP7b-28" value="" style="shape=partialRectangle;overflow=hidden;connectable=0;fillColor=none;top=0;left=0;bottom=0;right=0;labelBackgroundColor=none;strokeColor=#0F8B8D;fontColor=#143642;" parent="C-vyLk0tnHw3VtMMgP7b-27" vertex="1">
          <mxGeometry width="20" height="70" as="geometry">
            <mxRectangle width="20" height="70" as="alternateBounds" />
          </mxGeometry>
        </mxCell>
        <mxCell id="C-vyLk0tnHw3VtMMgP7b-29" value="Nombre&#xa;Direccion&#xa;Correo Electronico" style="shape=partialRectangle;overflow=hidden;connectable=0;fillColor=none;top=0;left=0;bottom=0;right=0;align=left;spacingLeft=6;verticalAlign=middle;spacingTop=-6;spacing=3;labelBackgroundColor=none;strokeColor=#0F8B8D;fontColor=#143642;" parent="C-vyLk0tnHw3VtMMgP7b-27" vertex="1">
          <mxGeometry x="20" width="180" height="70" as="geometry">
            <mxRectangle width="180" height="70" as="alternateBounds" />
          </mxGeometry>
        </mxCell>
        <mxCell id="jvAK4l5oVgonWaVZb3bf-20" value="&lt;b&gt;Categoria&lt;span style=&quot;white-space: pre;&quot;&gt;&#x9;&lt;/span&gt;&lt;/b&gt;" style="swimlane;fontStyle=0;childLayout=stackLayout;horizontal=1;startSize=30;horizontalStack=0;resizeParent=1;resizeParentMax=0;resizeLast=0;collapsible=1;marginBottom=0;whiteSpace=wrap;html=1;labelBackgroundColor=none;fillColor=#FAE5C7;strokeColor=#0F8B8D;fontColor=#143642;" vertex="1" parent="1">
          <mxGeometry x="520" y="30" width="140" height="90" as="geometry" />
        </mxCell>
        <mxCell id="jvAK4l5oVgonWaVZb3bf-21" value="ID_Categoria&lt;span style=&quot;white-space: pre;&quot;&gt;&#x9;&lt;/span&gt;&amp;nbsp;( CP)" style="text;strokeColor=none;fillColor=none;align=left;verticalAlign=middle;spacingLeft=4;spacingRight=4;overflow=hidden;points=[[0,0.5],[1,0.5]];portConstraint=eastwest;rotatable=0;whiteSpace=wrap;html=1;labelBackgroundColor=none;fontColor=#143642;" vertex="1" parent="jvAK4l5oVgonWaVZb3bf-20">
          <mxGeometry y="30" width="140" height="30" as="geometry" />
        </mxCell>
        <mxCell id="jvAK4l5oVgonWaVZb3bf-22" value="Nombre" style="text;strokeColor=none;fillColor=none;align=left;verticalAlign=middle;spacingLeft=4;spacingRight=4;overflow=hidden;points=[[0,0.5],[1,0.5]];portConstraint=eastwest;rotatable=0;whiteSpace=wrap;html=1;labelBackgroundColor=none;fontColor=#143642;" vertex="1" parent="jvAK4l5oVgonWaVZb3bf-20">
          <mxGeometry y="60" width="140" height="30" as="geometry" />
        </mxCell>
        <mxCell id="jvAK4l5oVgonWaVZb3bf-25" value="Proveedor" style="swimlane;fontStyle=1;childLayout=stackLayout;horizontal=1;startSize=30;horizontalStack=0;resizeParent=1;resizeParentMax=0;resizeLast=0;collapsible=1;marginBottom=0;whiteSpace=wrap;html=1;labelBackgroundColor=none;fillColor=#FAE5C7;strokeColor=#0F8B8D;fontColor=#143642;" vertex="1" parent="1">
          <mxGeometry x="330" y="230" width="140" height="160" as="geometry" />
        </mxCell>
        <mxCell id="jvAK4l5oVgonWaVZb3bf-26" value="ID_Proveedor (CP):" style="text;strokeColor=none;fillColor=none;align=left;verticalAlign=middle;spacingLeft=4;spacingRight=4;overflow=hidden;points=[[0,0.5],[1,0.5]];portConstraint=eastwest;rotatable=0;whiteSpace=wrap;html=1;labelBackgroundColor=none;fontColor=#143642;" vertex="1" parent="jvAK4l5oVgonWaVZb3bf-25">
          <mxGeometry y="30" width="140" height="30" as="geometry" />
        </mxCell>
        <mxCell id="jvAK4l5oVgonWaVZb3bf-27" value="Nombre:" style="text;strokeColor=none;fillColor=none;align=left;verticalAlign=middle;spacingLeft=4;spacingRight=4;overflow=hidden;points=[[0,0.5],[1,0.5]];portConstraint=eastwest;rotatable=0;whiteSpace=wrap;html=1;labelBackgroundColor=none;fontColor=#143642;" vertex="1" parent="jvAK4l5oVgonWaVZb3bf-25">
          <mxGeometry y="60" width="140" height="30" as="geometry" />
        </mxCell>
        <mxCell id="jvAK4l5oVgonWaVZb3bf-29" value="Direccion:" style="text;strokeColor=none;fillColor=none;align=left;verticalAlign=middle;spacingLeft=4;spacingRight=4;overflow=hidden;points=[[0,0.5],[1,0.5]];portConstraint=eastwest;rotatable=0;whiteSpace=wrap;html=1;labelBackgroundColor=none;fontColor=#143642;" vertex="1" parent="jvAK4l5oVgonWaVZb3bf-25">
          <mxGeometry y="90" width="140" height="30" as="geometry" />
        </mxCell>
        <mxCell id="jvAK4l5oVgonWaVZb3bf-28" value="Correo Electronico:" style="text;strokeColor=none;fillColor=none;align=left;verticalAlign=middle;spacingLeft=4;spacingRight=4;overflow=hidden;points=[[0,0.5],[1,0.5]];portConstraint=eastwest;rotatable=0;whiteSpace=wrap;html=1;labelBackgroundColor=none;fontColor=#143642;" vertex="1" parent="jvAK4l5oVgonWaVZb3bf-25">
          <mxGeometry y="120" width="140" height="40" as="geometry" />
        </mxCell>
        <mxCell id="jvAK4l5oVgonWaVZb3bf-30" value="Reseña" style="swimlane;fontStyle=1;childLayout=stackLayout;horizontal=1;startSize=30;horizontalStack=0;resizeParent=1;resizeParentMax=0;resizeLast=0;collapsible=1;marginBottom=0;whiteSpace=wrap;html=1;labelBackgroundColor=none;fillColor=#FAE5C7;strokeColor=#0F8B8D;fontColor=#143642;" vertex="1" parent="1">
          <mxGeometry x="310" y="620" width="190" height="180" as="geometry" />
        </mxCell>
        <mxCell id="jvAK4l5oVgonWaVZb3bf-31" value="ID_Reseña (CP)" style="text;strokeColor=none;fillColor=none;align=left;verticalAlign=middle;spacingLeft=4;spacingRight=4;overflow=hidden;points=[[0,0.5],[1,0.5]];portConstraint=eastwest;rotatable=0;whiteSpace=wrap;html=1;labelBackgroundColor=none;fontColor=#143642;" vertex="1" parent="jvAK4l5oVgonWaVZb3bf-30">
          <mxGeometry y="30" width="190" height="30" as="geometry" />
        </mxCell>
        <mxCell id="jvAK4l5oVgonWaVZb3bf-32" value="Ckiente_ID (CP)" style="text;strokeColor=none;fillColor=none;align=left;verticalAlign=middle;spacingLeft=4;spacingRight=4;overflow=hidden;points=[[0,0.5],[1,0.5]];portConstraint=eastwest;rotatable=0;whiteSpace=wrap;html=1;labelBackgroundColor=none;fontColor=#143642;" vertex="1" parent="jvAK4l5oVgonWaVZb3bf-30">
          <mxGeometry y="60" width="190" height="30" as="geometry" />
        </mxCell>
        <mxCell id="jvAK4l5oVgonWaVZb3bf-38" value="Producto_ID (CF)" style="text;strokeColor=none;fillColor=none;align=left;verticalAlign=middle;spacingLeft=4;spacingRight=4;overflow=hidden;points=[[0,0.5],[1,0.5]];portConstraint=eastwest;rotatable=0;whiteSpace=wrap;html=1;labelBackgroundColor=none;fontColor=#143642;" vertex="1" parent="jvAK4l5oVgonWaVZb3bf-30">
          <mxGeometry y="90" width="190" height="30" as="geometry" />
        </mxCell>
        <mxCell id="jvAK4l5oVgonWaVZb3bf-39" value="Puntuacion&amp;nbsp;" style="text;strokeColor=none;fillColor=none;align=left;verticalAlign=middle;spacingLeft=4;spacingRight=4;overflow=hidden;points=[[0,0.5],[1,0.5]];portConstraint=eastwest;rotatable=0;whiteSpace=wrap;html=1;labelBackgroundColor=none;fontColor=#143642;" vertex="1" parent="jvAK4l5oVgonWaVZb3bf-30">
          <mxGeometry y="120" width="190" height="30" as="geometry" />
        </mxCell>
        <mxCell id="jvAK4l5oVgonWaVZb3bf-33" value="Comentario" style="text;strokeColor=none;fillColor=none;align=left;verticalAlign=middle;spacingLeft=4;spacingRight=4;overflow=hidden;points=[[0,0.5],[1,0.5]];portConstraint=eastwest;rotatable=0;whiteSpace=wrap;html=1;labelBackgroundColor=none;fontColor=#143642;" vertex="1" parent="jvAK4l5oVgonWaVZb3bf-30">
          <mxGeometry y="150" width="190" height="30" as="geometry" />
        </mxCell>
        <mxCell id="jvAK4l5oVgonWaVZb3bf-41" value="Orden" style="swimlane;fontStyle=1;childLayout=stackLayout;horizontal=1;startSize=30;horizontalStack=0;resizeParent=1;resizeParentMax=0;resizeLast=0;collapsible=1;marginBottom=0;whiteSpace=wrap;html=1;labelBackgroundColor=none;fillColor=#FAE5C7;strokeColor=#0F8B8D;fontColor=#143642;" vertex="1" parent="1">
          <mxGeometry x="320" y="440" width="160" height="120" as="geometry" />
        </mxCell>
        <mxCell id="jvAK4l5oVgonWaVZb3bf-42" value="ID_Orden ( CP )" style="text;strokeColor=none;fillColor=none;align=left;verticalAlign=middle;spacingLeft=4;spacingRight=4;overflow=hidden;points=[[0,0.5],[1,0.5]];portConstraint=eastwest;rotatable=0;whiteSpace=wrap;html=1;labelBackgroundColor=none;fontColor=#143642;" vertex="1" parent="jvAK4l5oVgonWaVZb3bf-41">
          <mxGeometry y="30" width="160" height="30" as="geometry" />
        </mxCell>
        <mxCell id="jvAK4l5oVgonWaVZb3bf-43" value="Fecha_Orden" style="text;strokeColor=none;fillColor=none;align=left;verticalAlign=middle;spacingLeft=4;spacingRight=4;overflow=hidden;points=[[0,0.5],[1,0.5]];portConstraint=eastwest;rotatable=0;whiteSpace=wrap;html=1;labelBackgroundColor=none;fontColor=#143642;" vertex="1" parent="jvAK4l5oVgonWaVZb3bf-41">
          <mxGeometry y="60" width="160" height="30" as="geometry" />
        </mxCell>
        <mxCell id="jvAK4l5oVgonWaVZb3bf-44" value="Cliente_ID&amp;nbsp; ( CF )" style="text;strokeColor=none;fillColor=none;align=left;verticalAlign=middle;spacingLeft=4;spacingRight=4;overflow=hidden;points=[[0,0.5],[1,0.5]];portConstraint=eastwest;rotatable=0;whiteSpace=wrap;html=1;labelBackgroundColor=none;fontColor=#143642;" vertex="1" parent="jvAK4l5oVgonWaVZb3bf-41">
          <mxGeometry y="90" width="160" height="30" as="geometry" />
        </mxCell>
        <mxCell id="jvAK4l5oVgonWaVZb3bf-48" value="" style="edgeStyle=none;orthogonalLoop=1;jettySize=auto;html=1;rounded=0;exitX=0.47;exitY=1.133;exitDx=0;exitDy=0;exitPerimeter=0;entryX=0.5;entryY=0;entryDx=0;entryDy=0;labelBackgroundColor=none;strokeColor=#A8201A;fontColor=default;" edge="1" parent="1" source="C-vyLk0tnHw3VtMMgP7b-9" target="jvAK4l5oVgonWaVZb3bf-25">
          <mxGeometry width="100" relative="1" as="geometry">
            <mxPoint x="395" y="180" as="sourcePoint" />
            <mxPoint x="495" y="180" as="targetPoint" />
            <Array as="points" />
          </mxGeometry>
        </mxCell>
        <mxCell id="jvAK4l5oVgonWaVZb3bf-50" value="" style="edgeStyle=none;orthogonalLoop=1;jettySize=auto;html=1;rounded=0;exitX=0.47;exitY=1.133;exitDx=0;exitDy=0;exitPerimeter=0;entryX=0.5;entryY=0;entryDx=0;entryDy=0;labelBackgroundColor=none;strokeColor=#A8201A;fontColor=default;" edge="1" parent="1" target="jvAK4l5oVgonWaVZb3bf-41">
          <mxGeometry width="100" relative="1" as="geometry">
            <mxPoint x="399.5" y="390" as="sourcePoint" />
            <mxPoint x="399.5" y="466" as="targetPoint" />
            <Array as="points" />
          </mxGeometry>
        </mxCell>
        <mxCell id="jvAK4l5oVgonWaVZb3bf-52" value="" style="edgeStyle=none;orthogonalLoop=1;jettySize=auto;html=1;rounded=0;exitX=0.47;exitY=1.133;exitDx=0;exitDy=0;exitPerimeter=0;entryX=0.5;entryY=0;entryDx=0;entryDy=0;labelBackgroundColor=none;strokeColor=#A8201A;fontColor=default;" edge="1" parent="1">
          <mxGeometry width="100" relative="1" as="geometry">
            <mxPoint x="399.5" y="560" as="sourcePoint" />
            <mxPoint x="399.5" y="616" as="targetPoint" />
            <Array as="points" />
          </mxGeometry>
        </mxCell>
      </root>
    </mxGraphModel>
  </diagram>
</mxfile>
